# xmcd CD database file generated by Grip 2.95
# 
# Track frame offsets:
#       150
#       41052
#       48205
#       59150
#       73766
#       84880
#       100384
#       112781
#       121985
#       131420
#       145009
#       167753
#       180987
#       192127
#       220107
# 
# Disc length: 3357 seconds
# 
# Revision: 3
# Processed by: cddbd v1.4b41PL3 Copyright (c) Steve Scherf et al.
# Submitted via: Grip 2.95
# 
DISCID=cc0d1b0f
DTITLE=Bobby Darin - A&E Biography: Anthology
DYEAR=1900
DGENRE=
TTITLE0=Beyond The Sea - Live
TTITLE1=As Long As I'm Singing
TTITLE2=The Good Life
TTITLE3=Hello Dolly
TTITLE4=You're The Reason I'm Living
TTITLE5=Mack The Knife
TTITLE6=18 Yellow Roses - Live
TTITLE7=Love Look Away
TTITLE8=Call Me Irresponsible
TTITLE9=If I Were A Carpenter
TTITLE10=Higher and Higher
TTITLE11=Dont Rain On My Parade
TTITLE12=I Got A Woman
TTITLE13=The Curtain Falls
TTITLE14=Data Track
EXTD=
EXTT0=
EXTT1=
EXTT2=
EXTT3=
EXTT4=
EXTT5=
EXTT6=
EXTT7=
EXTT8=
EXTT9=
EXTT10=
EXTT11=
EXTT12=
EXTT13=
EXTT14=
PLAYORDER=
